External Loads File
version=1
nRows=62
nColumns=13
Range=5.000000e-03-10 seconds
endheader
time 	forceRightX 	forceRightY 	forceRightZ 	pointRightX 	pointRightY 	pointRightZ 	forceLeftX 	forceLeftY 	forceLeftZ 	pointLeftX 	pointLeftY 	pointLeftZ 		
5.005000 -80.283747 1029.635218 -0.000000 0.360171 0.223788 -0.104562 65.572876 -16.790077 -0.000000 0.123144 0.405597 -0.345222
5.010000 -49.287975 1022.205120 -0.000000 0.355218 0.214975 -0.104392 54.961002 -17.457554 -0.000000 0.129494 0.414971 -0.345143
5.015000 -18.019802 1003.434140 -0.000000 0.349948 0.206645 -0.104153 44.060725 -18.414330 -0.000000 0.136298 0.424201 -0.345053
5.020000 12.224471 973.083604 -0.000000 0.344252 0.198853 -0.103941 32.859719 -19.585014 -0.000000 0.143569 0.433006 -0.344893
5.025000 42.476757 931.328192 -0.000000 0.338250 0.191321 -0.103693 21.335362 -20.762942 -0.000000 0.151769 0.441587 -0.345275
5.030000 68.776585 878.950100 -0.000000 0.331672 0.184460 -0.103306 9.644939 -21.424694 -0.000000 0.159572 0.450007 -0.344918
5.035000 93.833657 816.878242 -0.000000 0.325025 0.178056 -0.103080 -2.085300 -21.085517 -0.000000 0.169191 0.457518 -0.345315
5.040000 109.972876 747.634234 -0.000000 0.317883 0.172345 -0.102816 -13.332063 -19.255198 -0.000000 0.176812 0.464143 -0.344666
5.045000 124.313597 672.609118 -0.000000 0.310414 0.167134 -0.102458 -23.882120 -15.540364 -0.000000 0.185306 0.470444 -0.344784
5.050000 136.158878 594.436632 -0.000000 0.302336 0.162689 -0.102124 -33.345348 -9.721132 -0.000000 0.194170 0.476325 -0.344531
5.055000 145.966783 515.974877 -0.000000 0.293724 0.158867 -0.101955 -41.450466 -1.797932 -0.000000 0.203542 0.481358 -0.344677
5.060000 153.778781 440.321089 -0.000000 0.284486 0.155986 -0.101919 -48.071261 7.983981 -0.000000 0.212771 0.485805 -0.344824
5.065000 160.923735 369.860544 -0.000000 0.274752 0.153785 -0.102035 -53.241805 19.359572 -0.000000 0.222111 0.489576 -0.344857
5.070000 168.104233 306.332522 -0.000000 0.264467 0.152189 -0.102097 -57.079527 32.018993 -0.000000 0.231327 0.492843 -0.345187
5.075000 175.812891 250.481901 -0.000000 0.253864 0.151368 -0.102154 -59.705826 45.721284 -0.000000 0.240709 0.495350 -0.345408
5.080000 183.716316 202.444885 -0.000000 0.243049 0.151141 -0.102205 -61.312758 60.197072 -0.000000 0.249832 0.497109 -0.345779
5.085000 191.259131 161.648357 -0.000000 0.232340 0.151917 -0.102270 -62.157196 75.265603 -0.000000 0.258632 0.498089 -0.345934
5.090000 197.740473 126.940810 -0.000000 0.222010 0.152981 -0.102549 -62.506221 90.913677 -0.000000 0.267398 0.498128 -0.346356
5.095000 202.144629 97.416136 -0.000000 0.212159 0.154724 -0.102768 -62.860881 107.144899 -0.000000 0.275617 0.497634 -0.346424
5.100000 204.034977 71.700776 -0.000000 0.202737 0.157334 -0.102983 -63.542967 124.271703 -0.000000 0.283392 0.496420 -0.346605
5.105000 203.265046 48.516580 -0.000000 0.193571 0.160335 -0.103103 -64.883453 142.768119 -0.000000 0.290751 0.494460 -0.346696
5.110000 200.030323 26.810478 -0.000000 0.184728 0.164037 -0.103254 -67.298736 163.235998 -0.000000 0.297694 0.491898 -0.346893
5.115000 194.797998 5.749281 -0.000000 0.176124 0.168592 -0.103391 -71.140700 186.367900 -0.000000 0.304269 0.488665 -0.347027
5.120000 188.104423 -14.702389 -0.000000 0.167768 0.173624 -0.103452 -76.991219 212.679210 -0.000000 0.310437 0.484908 -0.347191
5.125000 180.499304 -34.347150 -0.000000 0.159697 0.179376 -0.103376 -85.057930 242.600078 -0.000000 0.316258 0.480108 -0.347261
5.130000 172.481826 -52.494602 -0.000000 0.151882 0.185613 -0.103413 -95.449331 276.229528 -0.000000 0.321795 0.474011 -0.347352
5.135000 164.602977 -68.054943 -0.000000 0.144444 0.192387 -0.103476 -108.452563 313.145374 -0.000000 0.327078 0.467269 -0.347600
5.140000 157.293391 -80.324018 -0.000000 0.137332 0.199498 -0.103415 -123.585948 352.709119 -0.000000 0.332293 0.459622 -0.347736
5.145000 150.978740 -88.680711 -0.000000 0.130573 0.206995 -0.103189 -140.314133 393.914323 -0.000000 0.337298 0.451130 -0.348051
5.150000 145.936365 -92.954284 -0.000000 0.124388 0.215269 -0.103199 -157.595876 435.749881 -0.000000 0.341910 0.441711 -0.348387
5.155000 142.652211 -92.815026 -0.000000 0.118812 0.223524 -0.103382 -175.930467 476.711508 -0.000000 0.346397 0.432467 -0.348676
5.160000 141.067363 -88.914401 -0.000000 0.113660 0.232420 -0.103347 -194.095575 516.204642 -0.000000 0.350415 0.423252 -0.348712
5.165000 140.955780 -82.258283 -0.000000 0.109103 0.241696 -0.103434 -210.378720 554.253202 -0.000000 0.354212 0.413098 -0.348603
5.170000 142.314185 -73.550194 -0.000000 0.105100 0.251420 -0.103557 -224.960405 590.583843 -0.000000 0.357731 0.402626 -0.348644
5.175000 145.006406 -63.533159 -0.000000 0.101700 0.261331 -0.103664 -238.492338 625.062525 -0.000000 0.360841 0.392010 -0.348599
5.180000 148.600483 -53.201633 -0.000000 0.098832 0.271588 -0.103714 -250.349916 658.187978 -0.000000 0.363607 0.381253 -0.348468
5.185000 152.606410 -43.372734 -0.000000 0.096726 0.282191 -0.103796 -259.753031 690.468049 -0.000000 0.365932 0.370092 -0.348377
5.190000 156.613275 -34.267178 -0.000000 0.095344 0.292783 -0.103846 -267.715380 721.659783 -0.000000 0.367840 0.358889 -0.348188
5.195000 160.094335 -26.371622 -0.000000 0.094542 0.303484 -0.104060 -273.428497 752.195126 -0.000000 0.369349 0.347576 -0.348081
5.200000 162.636920 -19.976017 -0.000000 0.094425 0.314410 -0.104269 -276.412023 782.333068 -0.000000 0.370225 0.336141 -0.348028
5.205000 163.967790 -14.918921 -0.000000 0.094908 0.325159 -0.104542 -277.937032 811.653018 -0.000000 0.370619 0.324780 -0.348001
5.210000 163.822585 -11.741936 -0.000000 0.096095 0.336095 -0.104746 -275.612632 840.955806 -0.000000 0.370526 0.313127 -0.348063
5.215000 162.084780 -9.900831 -0.000000 0.097970 0.346964 -0.105030 -272.361302 869.163811 -0.000000 0.369978 0.302025 -0.348125
5.220000 158.553229 -9.843616 -0.000000 0.100485 0.357764 -0.105272 -265.997001 896.751495 -0.000000 0.368615 0.290976 -0.347898
5.225000 153.008914 -11.461485 -0.000000 0.103638 0.368486 -0.105464 -257.042614 923.117190 -0.000000 0.366923 0.280239 -0.347766
5.230000 145.153700 -14.889240 -0.000000 0.107440 0.379081 -0.105706 -244.060277 947.999327 -0.000000 0.364677 0.269565 -0.347652
5.235000 134.719147 -19.905431 -0.000000 0.111844 0.389595 -0.105967 -226.654145 970.546749 -0.000000 0.361883 0.259055 -0.347543
5.240000 121.591678 -25.981492 -0.000000 0.117080 0.399658 -0.105968 -205.684217 989.432361 -0.000000 0.358506 0.248940 -0.347423
5.245000 105.816239 -32.797439 -0.000000 0.122433 0.409725 -0.106420 -179.990738 1003.703919 -0.000000 0.354515 0.238994 -0.347479
5.250000 87.728666 -39.743732 -0.000000 0.128609 0.419295 -0.106612 -150.778292 1011.910603 -0.000000 0.350060 0.229463 -0.347433
5.255000 67.851507 -46.403602 -0.000000 0.135273 0.428552 -0.106757 -118.318627 1012.929259 -0.000000 0.344949 0.220464 -0.347492
5.260000 46.854137 -52.428823 -0.000000 0.142309 0.437404 -0.107088 -83.412212 1005.805178 -0.000000 0.339422 0.211635 -0.347598
5.265000 25.307428 -57.664270 -0.000000 0.150827 0.446018 -0.106912 -44.489747 990.008659 -0.000000 0.333412 0.203356 -0.347783
5.270000 4.197147 -61.808031 -0.000000 0.158767 0.454221 -0.107244 -7.799266 964.899257 -0.000000 0.326993 0.195309 -0.347796
5.275000 -15.813346 -64.960887 -0.000000 0.166618 0.461717 -0.108173 25.450336 930.860063 -0.000000 0.320155 0.188046 -0.347880
5.280000 -34.344916 -67.151294 -0.000000 0.174704 0.468495 -0.108770 56.058801 888.609809 -0.000000 0.312977 0.181172 -0.348073
5.285000 -51.172533 -68.220797 -0.000000 0.183347 0.474827 -0.108976 84.522018 839.068651 -0.000000 0.305381 0.175011 -0.348253
5.290000 -66.114152 -67.917695 -0.000000 0.192316 0.480669 -0.109481 110.142041 783.548985 -0.000000 0.297338 0.169436 -0.348348
5.295000 -79.126652 -65.832732 -0.000000 0.201776 0.485736 -0.109669 133.079667 723.660103 -0.000000 0.288820 0.164401 -0.348547
5.300000 -90.036161 -61.658424 -0.000000 0.211235 0.490144 -0.109891 152.226723 661.581321 -0.000000 0.279913 0.160256 -0.348721
5.305000 -98.830203 -54.922994 -0.000000 0.220883 0.493971 -0.110081 168.825867 599.225817 -0.000000 0.270514 0.156812 -0.348723
5.310000 -105.425654 -45.404885 -0.000000 0.230888 0.497106 -0.110435 183.332512 538.517422 -0.000000 0.260759 0.154239 -0.348564
